<?xml version="1.0" encoding="UTF-8" standalone="no"?><!DOCTYPE svg PUBLIC "-//W3C//DTD SVG 1.1//EN" "http://www.w3.org/Graphics/SVG/1.1/DTD/svg11.dtd"><svg width="100%" height="100%" viewBox="0 0 480 480" version="1.1" xmlns="http://www.w3.org/2000/svg" xmlns:xlink="http://www.w3.org/1999/xlink" xml:space="preserve" xmlns:serif="http://www.serif.com/" style="fill-rule:evenodd;clip-rule:evenodd;stroke-linejoin:round;stroke-miterlimit:1.41421;"><g id="brand-logo"><g id="Camada1"><path d="M444.477,61.864c-65.418,-74.421 -134.216,-61.262 -201.74,3.635c-66.447,-64.211 -140.422,-72.645 -206.449,-4.016c-31.14,53.911 -27.61,102.953 6.576,147.687l42.376,30.115l14.596,-34.78l36.536,-7.511l27.689,18.962l6.995,32.097l-7.007,47.238l16.656,11.837l62.933,45.293l81.174,-59.155l-21.694,-30.873l2.918,-60.262l15.751,-11.432l41.949,0.474l24.828,24.786l4.05,27.895l49.751,-36.256c34.836,-52.987 40.076,-104.493 2.112,-145.734Z" style="fill:#ee2e5d;"/><path d="M243.638,352.421c0,0 48.954,-146.97 -0.901,-286.922c-66.447,-64.211 -140.422,-72.645 -206.449,-4.016c-31.14,53.911 -27.61,102.953 6.576,147.687l42.376,30.115l14.596,-34.78l36.536,-7.511l27.689,18.962l6.995,32.097l-7.007,47.238l16.656,11.837l62.933,45.293Z" style="fill:#ee4777;"/></g><path id="Shape-1" serif:id="Shape 1" d="M351.27,180c27.617,0.047 50,22.459 50,50l0,27.448c0,14.549 -5.713,28.18 -16.087,38.382c-0.428,0.421 -0.861,0.832 -1.299,1.236c3.429,2.076 6.559,4.675 9.264,7.741c7.59,8.597 11.127,20.054 9.704,31.433l-14.681,126.156c-1.256,10.072 -9.788,17.604 -19.854,17.604l-36.324,0c-10.065,0 -18.597,-7.532 -19.846,-17.519l-12.661,-106.299c-0.653,-5.484 3.263,-10.459 8.747,-11.112c5.481,-0.655 10.459,3.263 11.112,8.747l3.77,31.646l26.178,13.089l27.791,-13.896l5.913,-50.812c0.731,-5.858 -0.992,-11.439 -4.842,-15.801c-3.85,-4.362 -9.176,-6.764 -14.994,-6.764l-43.883,0c-5.767,0 -11.253,2.49 -15.052,6.831c-0.176,0.201 -0.361,0.395 -0.552,0.582l-36.689,35.696c-6.07,6.75 -14.726,10.613 -23.819,10.613c-9.015,0 -17.598,-3.796 -23.661,-10.438l-39.521,-35.271c-0.306,-0.274 -0.596,-0.566 -0.867,-0.876c-1.899,-2.17 -4.642,-3.415 -7.526,-3.415l-11.972,0c-13.742,13.916 -32.817,22.55 -53.872,22.55l-17.827,0c-3.135,5.017 -5.658,10.639 -7.521,16.773l-26.889,88.528c-1.77,5.824 -0.254,11.544 2.033,14.628c0.698,0.942 2.126,2.521 3.849,2.521l125.571,0c1.776,-0.059 3.165,-1.598 3.849,-2.521c2.287,-3.085 3.803,-8.804 2.034,-14.628l-24.282,-79.945c-1.606,-5.285 1.378,-10.87 6.662,-12.475c5.284,-1.604 10.87,1.377 12.475,6.662l24.282,79.945c3.385,11.144 1.429,23.54 -5.104,32.352c-4.999,6.742 -12.258,10.609 -19.915,10.609l-125.572,0c-7.659,0 -14.917,-3.867 -19.918,-10.608c-6.534,-8.812 -8.489,-21.209 -5.104,-32.352l26.889,-88.528c1.145,-3.769 2.492,-7.399 4.074,-10.961l-20.68,0c-6.717,-0.036 -12.409,-4.093 -14.606,-10.355c-2.206,-6.291 -0.268,-13.046 4.937,-17.211l8.366,-6.693c19.367,-15.493 30.474,-38.603 30.474,-63.403c0,-29.652 24.193,-53.78 54.045,-53.831l1.1,0c14.082,0.021 27.241,5.483 37.143,15.386c9.921,9.922 15.384,23.113 15.383,37.144l-0.002,23.223c-0.001,11.93 -2.773,23.222 -7.709,33.27c7.613,0.558 14.749,4.002 19.93,9.658l39.525,35.275c0.307,0.274 0.597,0.566 0.868,0.876c2.286,2.613 5.587,4.111 9.059,4.111c3.472,0 6.774,-1.498 9.059,-4.111c0.177,-0.202 0.362,-0.396 0.553,-0.583l36.684,-35.69c4.879,-5.457 11.106,-9.412 17.96,-11.54c-8.579,-9.684 -13.814,-22.452 -13.814,-36.35l0,-47.477c0,-16.098 13.072,-29.201 29.25,-29.25l28.412,0Zm17.048,280l-36.317,0.058l-6.053,-50.818l18.874,9.437c2.814,1.407 6.129,1.407 8.943,0l20.557,-10.278l-6.004,51.601Zm-262.571,-142.45c30.788,-0.053 55.744,-25.038 55.747,-55.741l0.002,-23.225c0.001,-8.687 -3.381,-16.856 -9.525,-23c-6.144,-6.144 -14.312,-9.528 -23,-9.528l-1.1,0c-18.773,0 -34.045,15.177 -34.045,33.831c0,29.74 -12.813,57.526 -35.282,76.786c25.821,-4.189 48.153,-23.075 57.462,-49.615c1.829,-5.211 7.54,-7.951 12.746,-6.126c5.212,1.829 7.955,7.535 6.127,12.747c-6.236,17.78 -17.161,32.846 -30.965,43.871l1.833,0Zm275.524,-60.102l0,-27.448c0,-16.542 -13.458,-30 -30,-30l-28.412,0c-5.101,0 -9.25,4.149 -9.25,9.25l0,10.75c0,6.028 2.833,11.638 7.579,15.008c8.568,6.084 19.482,9.435 30.73,9.435c5.522,0 10,4.477 10,10c0,5.523 -4.478,10 -10,10c-13.69,0 -27.112,-3.703 -38.31,-10.5l0,2.784c0,18.743 14.915,34.241 33.248,34.547c9.136,0.136 17.784,-3.293 24.303,-9.704c6.498,-6.391 10.087,-14.921 10.112,-24.122l0,0Zm-34.118,-257.448c-23.502,0 -46.622,6.201 -66.861,17.932c-15.224,8.824 -28.599,20.617 -39.292,34.56c-10.693,-13.943 -24.069,-25.737 -39.292,-34.56c-20.24,-11.731 -43.36,-17.932 -66.862,-17.932c-73.803,0 -133.846,60.224 -133.846,134.25c0,30.441 11.135,59.707 31.353,82.405c1.976,2.219 4.717,3.349 7.471,3.349c2.366,0 4.741,-0.835 6.647,-2.533c4.124,-3.674 4.489,-9.995 0.815,-14.119c-16.951,-19.031 -26.286,-43.572 -26.286,-69.102c0,-62.998 51.071,-114.25 113.847,-114.25c40.28,0 76.758,20.704 97.58,55.383c1.807,3.011 5.062,4.853 8.573,4.853c3.511,0 6.765,-1.842 8.573,-4.853c20.821,-34.679 57.301,-55.383 97.581,-55.383c62.775,0 113.846,51.252 113.846,114.25c0,25.529 -9.335,50.069 -26.284,69.099c-3.673,4.124 -3.308,10.445 0.816,14.118c4.125,3.674 10.446,3.309 14.119,-0.816c20.216,-22.697 31.349,-51.962 31.349,-82.401c0,-74.026 -60.043,-134.25 -133.847,-134.25Z" style="fill:#fff;"/></g></svg>