<?xml version="1.0" encoding="UTF-8" standalone="no"?><!DOCTYPE svg PUBLIC "-//W3C//DTD SVG 1.1//EN" "http://www.w3.org/Graphics/SVG/1.1/DTD/svg11.dtd"><svg width="100%" height="100%" viewBox="0 0 800 800" version="1.1" xmlns="http://www.w3.org/2000/svg" xmlns:xlink="http://www.w3.org/1999/xlink" xml:space="preserve" xmlns:serif="http://www.serif.com/" style="fill-rule:evenodd;clip-rule:evenodd;stroke-linejoin:round;stroke-miterlimit:1.41421;"><g id="brand-logo"><g id="Camada1"><path d="M544.298,86.232c-78.814,-89.662 -161.702,-73.808 -243.054,4.38c-80.056,-77.361 -169.18,-87.523 -248.729,-4.84c-37.517,64.953 -33.265,124.038 7.922,177.934l51.054,36.282l17.586,-41.903l44.018,-9.049l33.36,22.845l8.427,38.671l-8.442,56.912l20.067,14.261l75.822,54.569l97.798,-71.271l-26.136,-37.195l3.514,-72.603l18.977,-13.773l50.541,0.571l29.912,29.862l4.88,33.607l59.939,-43.681c41.971,-63.837 48.284,-125.892 2.544,-175.579Z" style="fill:#ee2e5d;"/><path d="M302.329,436.294c0,0 58.979,-177.069 -1.085,-345.682c-80.056,-77.361 -169.18,-87.523 -248.729,-4.84c-37.517,64.953 -33.265,124.038 7.922,177.934l51.054,36.282l17.586,-41.903l44.018,-9.049l33.36,22.845l8.427,38.671l-8.442,56.912l20.067,14.261l75.822,54.569Z" style="fill:#ee4777;"/></g><path id="Shape-1" serif:id="Shape 1" d="M432.003,228.562c33.274,0.057 60.24,27.058 60.24,60.239l0,33.069c0,17.529 -6.883,33.952 -19.381,46.243c-0.516,0.507 -1.038,1.002 -1.565,1.489c4.131,2.501 7.902,5.632 11.161,9.326c9.144,10.358 13.406,24.161 11.691,37.871l-17.687,151.992c-1.514,12.134 -11.793,21.209 -23.92,21.209l-43.763,0c-12.127,0 -22.406,-9.075 -23.911,-21.107l-15.254,-128.068c-0.786,-6.607 3.932,-12.601 10.539,-13.388c6.603,-0.789 12.601,3.931 13.387,10.538l4.542,38.127l31.54,15.77l33.482,-16.742l7.124,-61.218c0.881,-7.058 -1.195,-13.782 -5.834,-19.037c-4.638,-5.255 -11.055,-8.149 -18.064,-8.149l-52.87,0c-6.948,0 -13.558,3 -18.135,8.23c-0.212,0.242 -0.435,0.476 -0.665,0.701l-44.203,43.006c-7.313,8.133 -17.741,12.787 -28.697,12.787c-10.861,0 -21.202,-4.574 -28.506,-12.576l-47.615,-42.494c-0.369,-0.33 -0.718,-0.682 -1.045,-1.056c-2.287,-2.614 -5.592,-4.114 -9.067,-4.114l-14.424,0c-16.556,16.766 -39.537,27.168 -64.904,27.168l-21.478,0c-3.777,6.045 -6.817,12.818 -9.062,20.208l-32.395,106.658c-2.133,7.017 -0.306,13.908 2.449,17.624c0.841,1.135 2.562,3.037 4.637,3.037l151.288,0c2.14,-0.071 3.813,-1.925 4.637,-3.037c2.755,-3.717 4.582,-10.607 2.45,-17.624l-29.254,-96.317c-1.935,-6.367 1.66,-13.096 8.026,-15.03c6.366,-1.932 13.096,1.659 15.03,8.026l29.255,96.318c4.078,13.426 1.721,28.361 -6.15,38.977c-6.022,8.123 -14.768,12.782 -23.993,12.782l-151.289,0c-9.227,0 -17.972,-4.659 -23.997,-12.781c-7.872,-10.616 -10.227,-25.552 -6.149,-38.977l32.396,-106.658c1.379,-4.541 3.002,-8.914 4.908,-13.206l-24.915,0c-8.093,-0.043 -14.95,-4.931 -17.597,-12.476c-2.658,-7.579 -0.323,-15.717 5.948,-20.735l10.079,-8.064c23.333,-18.666 36.715,-46.509 36.715,-76.388c0,-35.724 29.147,-64.793 65.113,-64.855l1.326,0c16.965,0.025 32.819,6.606 44.749,18.537c11.953,11.954 18.535,27.847 18.534,44.751l-0.003,27.979c-0.001,14.373 -3.341,27.978 -9.288,40.083c9.172,0.673 17.77,4.822 24.012,11.636l47.619,42.5c0.37,0.33 0.72,0.681 1.046,1.055c2.754,3.148 6.731,4.953 10.914,4.953c4.183,0 8.162,-1.805 10.915,-4.953c0.213,-0.243 0.436,-0.477 0.666,-0.702l44.197,-43c5.878,-6.574 13.38,-11.339 21.638,-13.903c-10.336,-11.667 -16.643,-27.05 -16.643,-43.794l0,-57.2c0,-19.395 15.748,-35.181 35.24,-35.24l34.23,0Zm20.54,337.342l-43.755,0.07l-7.292,-61.225l22.739,11.369c3.39,1.695 7.384,1.695 10.774,0l24.767,-12.383l-7.233,62.169Zm-316.344,-171.623c37.093,-0.064 67.16,-30.165 67.163,-67.156l0.003,-27.982c0.001,-10.466 -4.074,-20.308 -11.476,-27.71c-7.402,-7.402 -17.243,-11.479 -27.71,-11.479l-1.325,0c-22.618,0 -41.018,18.285 -41.018,40.759c0,35.831 -15.437,69.307 -42.507,92.511c31.109,-5.046 58.014,-27.8 69.23,-59.775c2.203,-6.279 9.084,-9.58 15.356,-7.381c6.279,2.204 9.584,9.078 7.382,15.357c-7.513,21.422 -20.676,39.573 -37.307,52.856l2.209,0Zm331.949,-72.411l0,-33.069c0,-19.929 -16.214,-36.144 -36.143,-36.144l-34.231,0c-6.146,0 -11.144,4.999 -11.144,11.145l0,12.951c0,7.263 3.413,14.022 9.131,18.082c10.323,7.33 23.472,11.367 37.023,11.367c6.653,0 12.048,5.394 12.048,12.048c0,6.654 -5.395,12.048 -12.048,12.048c-16.493,0 -32.664,-4.461 -46.155,-12.65l0,3.354c0,22.581 17.969,41.253 40.057,41.622c11.007,0.164 21.426,-3.968 29.28,-11.692c7.829,-7.699 12.152,-17.976 12.183,-29.062l-0.001,0Zm-41.105,-310.172c-28.315,0 -56.17,7.471 -80.553,21.605c-18.342,10.631 -34.456,24.839 -47.339,41.638c-12.883,-16.799 -28.998,-31.008 -47.339,-41.638c-24.385,-14.134 -52.24,-21.605 -80.555,-21.605c-88.918,0 -161.257,72.558 -161.257,161.744c0,36.675 13.415,71.935 37.774,99.281c2.381,2.674 5.683,4.035 9.001,4.035c2.851,0 5.712,-1.006 8.008,-3.052c4.969,-4.426 5.409,-12.042 0.982,-17.01c-20.422,-22.929 -31.669,-52.495 -31.669,-83.254c0,-75.9 61.53,-137.648 137.162,-137.648c48.529,0 92.478,24.944 117.564,66.725c2.177,3.628 6.099,5.847 10.329,5.847c4.23,0 8.15,-2.219 10.328,-5.847c25.086,-41.781 69.036,-66.725 117.566,-66.725c75.631,0 137.161,61.748 137.161,137.648c0,30.757 -11.247,60.323 -31.667,83.25c-4.425,4.969 -3.986,12.584 0.983,17.01c4.97,4.426 12.585,3.986 17.01,-0.984c24.357,-27.345 37.77,-62.603 37.77,-99.276c0,-89.186 -72.34,-161.744 -161.259,-161.744Z" style="fill:#fff;"/></g></svg>